# xmcd CD database file
#
# Track frame offsets:
#	150
#	22878
#	40208
#	62625
#
# Disc length: 1136 seconds
#
# Revision: 0
# Processed by: cddbd v1.5.1PL2 Copyright (c) Steve Scherf et al.
# Submitted via: CDex 1.51
#
DISCID=28046e04
DTITLE=THE ROOSTERS - C・M・C
DYEAR=1983
DGENRE=Rock
TTITLE0=C・M・C
TTITLE1=カレドニア
TTITLE2=Drive All Night
TTITLE3=Case Of Insanity (LIVE)
EXTD=YEAR: 1983
EXTT0=
EXTT1=
EXTT2=
EXTT3=
PLAYORDER=
